<?xml version="1.0" encoding="UTF-8"?>
<svg id="Warstwa_1" xmlns="http://www.w3.org/2000/svg" version="1.1" viewBox="0 0 1000 1000">
  <!-- Generator: Adobe Illustrator 30.2.1, SVG Export Plug-In . SVG Version: 2.1.1 Build 1)  -->
  <defs>
    <style>
      .st0 {
        fill: #929292;
      }
    </style>
  </defs>
  <path class="st0" d="M780.01,810.81l49.67-49.67-26.65-26.65-23.02,23.02V242.49l23.02,23.02,26.65-26.65-49.67-49.67v-93.8h-93.8l-49.67-49.67-26.65,26.65,23.02,23.02h-265.82l23.02-23.02-26.65-26.65-49.67,49.67h-93.8v93.8l-49.67,49.67,26.65,26.65,23.02-23.02v515.02l-23.02-23.02-26.65,26.65,49.67,49.67v93.8h93.8l49.67,49.67,26.65-26.65-23.02-23.02h265.82l-23.02,23.02,26.65,26.65,49.67-49.67h93.8v-93.8ZM748.86,126.54v31.5l-31.5-31.5h31.5ZM251.14,126.54h31.5l-31.5,31.5v-31.5ZM251.14,873.46v-31.5l31.5,31.5h-31.5ZM335.94,873.46l-84.8-84.8V211.34l84.8-84.8h328.12l84.8,84.8v577.32l-84.8,84.8h-328.12ZM717.36,873.46l31.5-31.5v31.5h-31.5Z"/>
</svg>