<?xml version="1.0" encoding="UTF-8"?>
<svg id="Warstwa_1" xmlns="http://www.w3.org/2000/svg" version="1.1" viewBox="0 0 1000 1000">
  <!-- Generator: Adobe Illustrator 30.2.1, SVG Export Plug-In . SVG Version: 2.1.1 Build 1)  -->
  <defs>
    <style>
      .st0 {
        fill: #929292;
      }
    </style>
  </defs>
  <path class="st0" d="M95.39,715.48v-443.91c0-32.06,25.99-58.05,58.05-58.05h693.12c32.06,0,58.05,25.99,58.05,58.05v443.91c0,32.06-25.99,58.05-58.05,58.05H153.44c-32.06,0-58.05-25.99-58.05-58.05ZM126.54,271.37v444.31c0,14.75,11.95,26.7,26.7,26.7h693.52c14.75,0,26.7-11.95,26.7-26.7v-444.31c0-14.75-11.95-26.7-26.7-26.7H153.24c-14.75,0-26.7,11.95-26.7,26.7Z"/>
</svg>